<svg fill="#ff3300" id="Capa_2" xmlns="http://www.w3.org/2000/svg"
    viewBox="0 0 646.28 251.97">
    <defs>
    <style></style>
    </defs>
    <g id="Capa_1-2">
    <path class="cls-2"
        d="m562.05 44.62 9.81 16.75-18.7 32.37 17.22 5.4 31.41-54.52h-39.74Zm0 0h-62.79l19.89 34.37 9.61-16.87h37.36l-4.06-17.51Zm-11.09 54.66-18.75-32.34-13.06 12.05 31.44 54.61 19.8-34.46-19.42.15Zm-443.95 57.78-3.11-68.92c-.61-13.41-4.24-32.11-31.82-30.86l-30.19 1.34 6.04 133.57 30.16-1.34c27.58-1.25 29.52-20.2 28.91-33.79Zm-29.9 11.61-2.73.12-1.02.06-22 .99 21.83-4.7-3.66-81.84-22.18-2.7 22.01-.99 1.02-.06 2.7-.12c2.99-.12 4.01 1.68 4.18 5.23l3.51 78.24c.17 3.74-.7 5.63-3.66 5.78Zm76.11-67.41.73-20.61-37.91-1.36-4.44 124.16 37.91 1.34.73-20.55-21.42-.78 8.16-1.07 1.1-30.86 11.23.41.93-20.61-11.44-.41.96-26.91-19.13-3.92 23.02.81v.03l9.58.35Zm44.24-45.05-2.58 120.45-1.65.06h-.03l-20.59.64 20.3-4.38-9.41-116.35-31.41.9 22.38 148.66 40.38-1.13 13.82-149.71-31.21.87Zm60.5 17.62h-24.3v122.59h24.3V97.11l-20.7-4.33 20.7.78V73.82Zm60.5-6.59-37.8-1.16-21.25 139.17 29.41.93 1.94-24.41-25.78-4.18 36.2 1.07.49 27.9 29.41.93-12.63-140.24ZM291.4 173.49l6.36-79.98 1.57.06 1.6 80.21-9.52-.29Zm83.55 20.81 21.98-1.8-10.22-125-23.89 1.94 5.63 68.86-1.39.12-15.42-68.08-21.77 1.8 10.22 125 23.19-1.89-6.27-76.55 1.39-.12 16.55 75.71Zm36.14-119.69 20.61-.26v-.03l11.87-.26-.58-24.94-52.83 1.22.58 24.94 11.87-.26 2.9 125.26 29.09-.67-2.82-121.81-20.7-3.19Z">
    </path>
    <path class="cls-2"
        d="M495.56 110.96c2.15-4.93 3.42-9.92 3.68-17.62.6-17.18-11.42-27.11-27.17-27.66-17.19-.6-30.24 8.99-31.05 32.08-.57 15.92 6 28.52 15.49 38.7 12.97 13.54 16.06 17.04 15.61 29.58-.23 6.97-1.6 10.16-4.82 10.05-1.4-.06-2.44-.58-3.15-1.46l-6.95 16.32 8.24-34.54-23.67-3.62c-1.75 4.42-2.84 9.58-3.04 14.95-.6 17.18 8.14 28.95 28.54 29.66 17.53.63 28.69-10.61 29.47-32.65.57-16.64-5.97-29.23-19.8-43.87-8.63-9.27-11.97-11.53-11.53-23.9.23-6.09 2.15-9.96 5.36-9.85 1.81.06 2.93 1.01 3.5 2.56l7.03-14.43-9.43 31.93 23.69 3.76Z">
    </path>
    <path style="fill:none" d="M0 0h646.28v251.97H0z"></path>
    </g>
</svg>