<!-- Deviant_logo_Lg_Red -->
<svg xmlns="http://www.w3.org/2000/svg" width="146" height="57">
  <g>
    <path d="M 127.027 10.093 L 129.244 13.881 L 125.018 21.203 L 128.909 22.425 L 136.008 10.093 Z M 127.027 10.093 L 112.836 10.093 L 117.331 17.867 L 119.503 14.051 L 127.947 14.051 L 127.029 10.09 Z M 124.52 22.456 L 120.283 15.141 L 117.331 17.867 L 124.437 30.219 L 128.912 22.425 L 124.523 22.458 Z M 24.185 35.525 L 23.482 19.936 C 23.344 16.903 22.524 12.673 16.291 12.956 L 9.467 13.259 L 10.832 43.472 L 17.649 43.168 C 23.882 42.886 24.321 38.599 24.183 35.525 Z M 17.427 38.152 L 16.81 38.179 L 16.58 38.192 L 11.608 38.416 L 16.541 37.353 L 15.714 18.842 L 10.701 18.231 L 15.676 18.007 L 15.906 17.993 L 16.517 17.966 C 17.192 17.939 17.423 18.346 17.461 19.149 L 18.255 36.846 C 18.293 37.692 18.096 38.12 17.427 38.154 Z M 34.629 22.904 L 34.794 18.242 L 26.226 17.935 L 25.222 46.018 L 33.79 46.322 L 33.955 41.673 L 29.114 41.497 L 30.958 41.255 L 31.207 34.275 L 33.745 34.367 L 33.955 29.706 L 31.37 29.613 L 31.587 23.526 L 27.263 22.639 L 32.466 22.823 L 32.466 22.829 L 34.631 22.909 Z M 44.627 12.714 L 44.044 39.959 L 43.671 39.972 L 43.664 39.972 L 39.011 40.117 L 43.599 39.126 L 41.472 12.809 L 34.373 13.013 L 39.431 46.638 L 48.557 46.383 L 51.681 12.52 L 44.627 12.716 Z M 58.301 16.7 L 52.809 16.7 L 52.809 44.428 L 58.301 44.428 L 58.301 21.965 L 53.622 20.986 L 58.301 21.162 L 58.301 16.697 Z M 71.974 15.209 L 63.431 14.947 L 58.628 46.426 L 65.275 46.636 L 65.714 41.115 L 59.887 40.169 L 68.069 40.411 L 68.179 46.722 L 74.826 46.932 L 71.972 15.211 Z M 65.858 39.242 L 67.296 21.151 L 67.65 21.165 L 68.012 39.307 L 65.86 39.242 Z M 84.741 43.949 L 89.709 43.542 L 87.399 15.268 L 82 15.707 L 83.272 31.282 L 82.958 31.309 L 79.473 15.91 L 74.553 16.317 L 76.862 44.591 L 82.104 44.164 L 80.686 26.849 L 81.001 26.822 L 84.741 43.947 Z M 92.909 16.876 L 97.567 16.817 L 97.567 16.81 L 100.25 16.752 L 100.118 11.11 L 88.179 11.386 L 88.31 17.028 L 90.992 16.969 L 91.648 45.301 L 98.222 45.15 L 97.585 17.598 L 92.907 16.876 Z" fill="rgb(255,51,0)"></path>
    <path d="M 112 25.098 C 112.486 23.983 112.773 22.854 112.831 21.113 C 112.967 17.227 110.25 14.981 106.691 14.856 C 102.806 14.72 99.856 16.89 99.673 22.112 C 99.544 25.713 101.029 28.563 103.174 30.866 C 106.105 33.929 106.804 34.72 106.702 37.557 C 106.65 39.133 106.34 39.855 105.613 39.83 C 105.296 39.816 105.061 39.699 104.901 39.5 L 103.33 43.191 L 105.192 35.378 L 99.843 34.56 C 99.447 35.559 99.201 36.727 99.156 37.941 C 99.02 41.827 100.995 44.489 105.606 44.65 C 109.568 44.792 112.09 42.25 112.266 37.265 C 112.395 33.501 110.917 30.653 107.791 27.342 C 105.841 25.245 105.086 24.734 105.186 21.936 C 105.238 20.558 105.671 19.683 106.397 19.708 C 106.806 19.722 107.059 19.936 107.188 20.287 L 108.777 17.023 L 106.646 24.245 L 112 25.096 Z" fill="rgb(255,51,0)"></path>
    <path d="M 0 0 L 146.063 0 L 146.063 56.993 L 0 56.993 Z" fill="transparent"></path>
  </g>
</svg>